# xmcd
#
# Track frame offsets:
#	150
#	19429
#	39529
#	62987
#	82259
#	99886
#	125411
#	150189
#	172379
#	192564
#
# Disc length: 2771 seconds
#
# Revision: 0
# Processed by: cddbd v1.5.2PL0 Copyright (c) Steve Scherf et al.
# Submitted via: EasyCDDAExtractor 15.2.5.1
#
DISCID=890ad10a
DTITLE=Robert Kasprowicz - Dokod isc
DYEAR=2015
DGENRE=christian
TTITLE0=Zmartwychwstal Pan
TTITLE1=Dokad isc?
TTITLE2=Tylko Twoja krew
TTITLE3=Nic sie nie moze rownac
TTITLE4=Przed tronem Twym
TTITLE5=Dzieki Jezu
TTITLE6=Jak wyrazic mam podziw dla Ciebie?
TTITLE7=Kto poznal mnie?
TTITLE8=Nowe Jeruzalem
TTITLE9=Wieczorny rachunek sumienia
EXTD=
EXTT0=
EXTT1=
EXTT2=
EXTT3=
EXTT4=
EXTT5=
EXTT6=
EXTT7=
EXTT8=
EXTT9=
PLAYORDER=
